<svg height="426pt" viewBox="-46 0 426 426.66667" width="426pt" xmlns="http://www.w3.org/2000/svg"><path fill="#FEE715" d="m191.480469 426.667969h-34.132813c-3.773437 0-6.828125-3.054688-6.828125-6.828125v-54.613282c0-3.773437 3.054688-6.828124 6.828125-6.828124h34.132813c3.773437 0 6.828125 3.054687 6.828125 6.828124v54.613282c0 3.773437-3.054688 6.828125-6.828125 6.828125zm-27.308594-13.65625h20.480469v-40.957031h-20.480469zm0 0"/><path fill="#FEE715" d="m211.960938 372.054688h-75.09375c-3.773438 0-6.828126-3.054688-6.828126-6.828126v-27.304687c0-3.773437 3.054688-6.828125 6.828126-6.828125h75.09375c3.773437 0 6.824218 3.054688 6.824218 6.828125v27.304687c0 3.773438-3.050781 6.828126-6.824218 6.828126zm-68.269532-13.65625h61.441406v-13.652344h-61.441406zm0 0"/><path fill="#FEE715" d="m225.613281 344.746094h-102.398437c-3.773438 0-6.828125-3.050782-6.828125-6.824219v-27.308594c0-3.773437 3.054687-6.828125 6.828125-6.828125 3.773437 0 6.824218 3.054688 6.824218 6.828125v20.480469h88.746094v-20.480469c0-3.773437 3.054688-6.828125 6.828125-6.828125 3.773438 0 6.828125 3.054688 6.828125 6.828125v27.308594c0 3.773437-3.054687 6.824219-6.828125 6.824219zm0 0"/><path fill="#FEE715" d="m321.1875 426.667969h-218.453125c-3.773437 0-6.828125-3.054688-6.828125-6.828125 0-3.773438 3.054688-6.828125 6.828125-6.828125h218.453125c3.773438 0 6.824219 3.054687 6.824219 6.828125 0 3.773437-3.050781 6.828125-6.824219 6.828125zm0 0"/><path fill="#FEE715" d="m61.773438 426.667969h-54.613282c-3.773437 0-6.828125-3.054688-6.828125-6.828125 0-3.773438 3.054688-6.828125 6.828125-6.828125h54.613282c3.773437 0 6.828124 3.054687 6.828124 6.828125 0 3.773437-3.054687 6.828125-6.828124 6.828125zm0 0"/><path fill="#FEE715" d="m174.414062 320.851562c-88.460937 0-160.425781-71.964843-160.425781-160.425781 0-88.460937 71.964844-160.425781 160.425781-160.425781 88.460938 0 160.425782 71.964844 160.425782 160.425781 0 88.460938-71.964844 160.425781-160.425782 160.425781zm0-307.199218c-80.933593 0-146.773437 65.839844-146.773437 146.773437 0 80.933594 65.839844 146.773438 146.773437 146.773438 80.933594 0 146.773438-65.839844 146.773438-146.773438 0-80.933593-65.839844-146.773437-146.773438-146.773437zm0 0"/><path fill="#FEE715" d="m130.039062 98.988281c0 7.539063-6.113281 13.652344-13.652343 13.652344-7.539063 0-13.652344-6.113281-13.652344-13.652344 0-7.542969 6.113281-13.65625 13.652344-13.65625 7.539062 0 13.652343 6.113281 13.652343 13.65625zm0 0"/><path fill="#FEE715" d="m246.09375 98.988281c0 7.539063-6.113281 13.652344-13.652344 13.652344-7.542968 0-13.65625-6.113281-13.65625-13.652344 0-7.542969 6.113282-13.65625 13.65625-13.65625 7.539063 0 13.652344 6.113281 13.652344 13.65625zm0 0"/><path fill="#FEE715" d="m293.878906 150.1875c0 5.65625-4.582031 10.238281-10.238281 10.238281s-10.242187-4.582031-10.242187-10.238281 4.585937-10.242188 10.242187-10.242188 10.238281 4.585938 10.238281 10.242188zm0 0"/><path fill="#FEE715" d="m307.535156 184.320312c0 5.65625-4.585937 10.238282-10.242187 10.238282s-10.238281-4.582032-10.238281-10.238282 4.582031-10.242187 10.238281-10.242187 10.242187 4.585937 10.242187 10.242187zm0 0"/><path fill="#FEE715" d="m266.574219 191.148438c0 5.652343-4.585938 10.238281-10.242188 10.238281-5.652343 0-10.238281-4.585938-10.238281-10.238281 0-5.65625 4.585938-10.242188 10.238281-10.242188 5.65625 0 10.242188 4.585938 10.242188 10.242188zm0 0"/><path fill="#FEE715" d="m287.054688 218.453125c0 5.65625-4.585938 10.238281-10.242188 10.238281s-10.238281-4.582031-10.238281-10.238281 4.582031-10.238281 10.238281-10.238281 10.242188 4.582031 10.242188 10.238281zm0 0"/><path fill="#FEE715" d="m246.09375 225.28125c0 5.652344-4.585938 10.238281-10.242188 10.238281-5.652343 0-10.238281-4.585937-10.238281-10.238281 0-5.65625 4.585938-10.242188 10.238281-10.242188 5.65625 0 10.242188 4.585938 10.242188 10.242188zm0 0"/><path fill="#FEE715" d="m266.574219 252.585938c0 5.65625-4.585938 10.242187-10.242188 10.242187-5.652343 0-10.238281-4.585937-10.238281-10.242187s4.585938-10.238282 10.238281-10.238282c5.65625 0 10.242188 4.582032 10.242188 10.238282zm0 0"/><path fill="#FEE715" d="m205.132812 245.761719c0 5.652343-4.585937 10.238281-10.238281 10.238281-5.65625 0-10.242187-4.585938-10.242187-10.238281 0-5.65625 4.585937-10.242188 10.242187-10.242188 5.652344 0 10.238281 4.585938 10.238281 10.242188zm0 0"/><path fill="#FEE715" d="m191.480469 279.894531c0 5.652344-4.585938 10.238281-10.242188 10.238281-5.652343 0-10.238281-4.585937-10.238281-10.238281 0-5.65625 4.585938-10.242187 10.238281-10.242187 5.65625 0 10.242188 4.585937 10.242188 10.242187zm0 0"/><path fill="#FEE715" d="m232.441406 273.066406c0 5.65625-4.585937 10.242188-10.242187 10.242188s-10.238281-4.585938-10.238281-10.242188 4.582031-10.238281 10.238281-10.238281 10.242187 4.582031 10.242187 10.238281zm0 0"/><path fill="#FEE715" d="m211.960938 180.90625h-75.09375c-3.773438 0-6.828126-3.054688-6.828126-6.828125s3.054688-6.824219 6.828126-6.824219h75.09375c3.773437 0 6.824218 3.050782 6.824218 6.824219s-3.050781 6.828125-6.824218 6.828125zm0 0"/></svg>